<svg width="48" height="48" fill="none" xmlns="http://www.w3.org/2000/svg"><circle cx="24" cy="24" r="24" fill="#FEFEFE"/><path d="M23.5 9.333c2.022 0 3.75.706 5.183 2.117 1.434 1.411 2.15 3.128 2.15 5.15 0 1.155-.25 2.244-.75 3.267a7.368 7.368 0 0 1-2.116 2.6h-1.134V20.8a5.149 5.149 0 0 0 1.484-1.867 5.422 5.422 0 0 0 .516-2.333c0-1.467-.522-2.711-1.566-3.733-1.045-1.023-2.3-1.534-3.767-1.534s-2.722.511-3.767 1.534c-1.044 1.022-1.566 2.266-1.566 3.733 0 .822.172 1.6.516 2.333a5.149 5.149 0 0 0 1.484 1.867v2.4a7.25 7.25 0 0 1-2.934-2.733 7.342 7.342 0 0 1-1.066-3.867c0-2.022.716-3.739 2.15-5.15 1.433-1.411 3.16-2.117 5.183-2.117Zm-1.267 28c-.377 0-.733-.072-1.066-.216a2.766 2.766 0 0 1-.867-.584l-6.867-6.866 1.867-1.934c.311-.31.661-.55 1.05-.716a1.827 1.827 0 0 1 1.217-.084l2.6.6V16.667c0-.934.322-1.723.966-2.367.645-.645 1.434-.967 2.367-.967s1.722.322 2.367.967c.644.644.966 1.433.966 2.367V22.4h.867c.111 0 .211.022.3.067.089.044.189.088.3.133l4.933 2.4c.534.244.928.639 1.184 1.183.255.545.328 1.106.216 1.684l-1.2 7.266a2.518 2.518 0 0 1-.933 1.584 2.692 2.692 0 0 1-1.733.616h-8.534Zm-.266-2h9.366l1.434-8.3-6.1-3.033h-1.834v-7.333c0-.4-.122-.723-.366-.967-.245-.244-.567-.367-.967-.367s-.722.123-.967.367c-.244.244-.366.567-.366.967v13.3l-5.134-1.1-.766.766 5.7 5.7Zm9.366 0h-9.366 9.366Z" fill="#7EB101"/></svg>