<!-- Generated by IcoMoon.io -->
<svg version="1.1" xmlns="http://www.w3.org/2000/svg" width="559" height="1024" viewBox="0 0 559 1024">
<title></title>
<g id="icomoon-ignore">
</g>
<path stroke="#000" fill="#000" stroke-width="46.5455" stroke-miterlimit="4" stroke-linecap="butt" stroke-linejoin="miter" d="M523.176 499.358v0c1.713 1.634 3.072 3.593 4.003 5.767v0c0.931 2.169 1.41 4.51 1.41 6.87 0 2.365-0.479 4.706-1.41 6.875v0c-0.931 2.174-2.29 4.133-4.003 5.762v0.005l-453.95 432.524c-3.246 3.095-7.559 4.822-12.044 4.822-4.412 0-8.657-1.671-11.884-4.669l-0.251-0.251 0.005-0.005-0.432-0.414c-1.396-1.322-2.508-2.918-3.267-4.692-0.76-1.769-1.151-3.672-1.151-5.599s0.392-3.831 1.151-5.599c0.76-1.769 1.871-3.365 3.267-4.692l0.021-0.019 445.166-423.959-445.187-424.151c-1.396-1.326-2.508-2.923-3.267-4.692s-1.151-3.675-1.151-5.6c0-1.926 0.392-3.831 1.151-5.6s1.871-3.366 3.267-4.692l0.005 0.006 0.672-0.673c3.227-3 7.472-4.67 11.884-4.67 4.485 0 8.798 1.726 12.044 4.821l0.004 0.004 453.946 432.522z"></path>
</svg>
