<!-- Generated by IcoMoon.io -->
<svg version="1.1" xmlns="http://www.w3.org/2000/svg" width="559" height="1024" viewBox="0 0 559 1024">
<title></title>
<g id="icomoon-ignore">
</g>
<path stroke="#000" fill="#000" stroke-width="46.5455" stroke-miterlimit="4" stroke-linecap="butt" stroke-linejoin="miter" d="M35.369 524.642v0c-1.711-1.634-3.073-3.593-4.004-5.767v0c-0.931-2.169-1.411-4.51-1.411-6.87 0-2.365 0.48-4.706 1.411-6.875v0c0.931-2.174 2.293-4.133 4.004-5.762v-0.005l453.949-432.525c3.249-3.094 7.559-4.821 12.046-4.821 4.413 0 8.657 1.671 11.883 4.671l0.251 0.251-0.005 0.005 0.433 0.411c1.392 1.326 2.504 2.922 3.267 4.692 0.759 1.769 1.15 3.675 1.15 5.6s-0.391 3.831-1.15 5.6c-0.763 1.77-1.876 3.366-3.267 4.692l-0.023 0.020-445.165 423.958 445.189 424.15c1.392 1.327 2.504 2.923 3.267 4.692 0.759 1.769 1.15 3.677 1.15 5.599 0 1.927-0.391 3.831-1.15 5.604-0.763 1.769-1.876 3.365-3.267 4.692l-0.009-0.009-0.419 0.424-0.251 0.251c-3.226 2.998-7.471 4.669-11.883 4.669-4.487 0-8.797-1.727-12.046-4.817l-0.005-0.005-453.944-432.524z"></path>
</svg>
