<svg width="18" height="16" viewBox="0 0 18 16" fill="none" xmlns="http://www.w3.org/2000/svg">
<path d="M7.81974 0.51869C8.11607 -0.172898 9.12535 -0.172897 9.42168 0.518692L11.1706 4.60057C11.2956 4.89213 11.5781 5.09134 11.9023 5.11657L16.442 5.46986C17.2111 5.52972 17.523 6.46147 16.937 6.94875L13.4783 9.82474C13.2313 10.0302 13.1233 10.3526 13.1988 10.6597L14.2555 14.9599C14.4345 15.6885 13.618 16.2644 12.9595 15.874L9.07289 13.5695C8.79528 13.4049 8.44614 13.4049 8.16853 13.5695L4.2819 15.874C3.62338 16.2644 2.80686 15.6885 2.9859 14.9599L4.04261 10.6597C4.11809 10.3526 4.0102 10.0302 3.76316 9.82474L0.304365 6.94875C-0.281654 6.46147 0.030231 5.52972 0.799391 5.46986L5.33911 5.11657C5.66337 5.09134 5.94584 4.89213 6.07076 4.60057L7.81974 0.51869Z" fill="#FFE550"/>
</svg>
