<svg aria-hidden="true" style="position: absolute; width: 0; height: 0; overflow: hidden;" version="1.1"
    xmlns="http://www.w3.org/2000/svg" xmlns:xlink="http://www.w3.org/1999/xlink">
    <defs>
        <symbol id="right-arrow" viewBox="0 0 34 32">
            <path
                d="M21.931 15.71c0.163 0.163 0.264 0.389 0.264 0.638s-0.101 0.474-0.264 0.638v0l-9.207 9.209c-0.163 0.164-0.389 0.265-0.639 0.265s-0.475-0.101-0.639-0.265v0l-0.425-0.425c-0.164-0.164-0.266-0.39-0.266-0.64s0.102-0.476 0.266-0.64l8.142-8.139-8.142-8.144c-0.164-0.163-0.265-0.389-0.265-0.639s0.101-0.475 0.265-0.639v0l0.425-0.425c0.164-0.164 0.39-0.266 0.64-0.266s0.476 0.102 0.64 0.266l9.205 9.207z">
            </path>
        </symbol>
        <symbol id="icon-close_menu" viewBox="0 0 30 32">
            <path
                d="M16.219 14.826l4.928-4.924c0.166-0.194 0.253-0.443 0.243-0.698s-0.116-0.497-0.296-0.677c-0.181-0.18-0.423-0.286-0.678-0.296s-0.505 0.077-0.699 0.243l-4.928 4.873-4.958-4.954c-0.194-0.166-0.443-0.253-0.699-0.243s-0.497 0.116-0.678 0.296c-0.181 0.18-0.286 0.422-0.296 0.677s0.077 0.504 0.243 0.698l4.948 5.005-4.846 4.782c-0.106 0.091-0.192 0.203-0.253 0.328s-0.095 0.263-0.1 0.402 0.018 0.279 0.069 0.409c0.051 0.13 0.128 0.248 0.227 0.347s0.217 0.176 0.347 0.227c0.13 0.051 0.269 0.074 0.409 0.069s0.277-0.040 0.402-0.1c0.126-0.061 0.238-0.147 0.329-0.253l4.836-4.833 4.806 4.802c0.194 0.166 0.443 0.253 0.699 0.243s0.497-0.116 0.678-0.296c0.181-0.18 0.286-0.422 0.296-0.677s-0.077-0.504-0.243-0.698l-4.786-4.751z">
            </path>
        </symbol>
        <symbol id="icon-header_menu" viewBox="0 0 32 32">
            <path fill="#7eb101" style="fill: var(--color1, #7eb101)"
                d="M2.666 8c0-0.354 0.14-0.693 0.391-0.943s0.589-0.391 0.943-0.391h24c0.354 0 0.693 0.14 0.943 0.391s0.39 0.589 0.39 0.943c0 0.354-0.14 0.693-0.39 0.943s-0.589 0.391-0.943 0.391h-24c-0.354 0-0.693-0.14-0.943-0.391s-0.391-0.589-0.391-0.943zM2.666 16.043c0-0.354 0.14-0.693 0.391-0.943s0.589-0.39 0.943-0.39h24c0.354 0 0.693 0.14 0.943 0.39s0.39 0.589 0.39 0.943c0 0.354-0.14 0.693-0.39 0.943s-0.589 0.39-0.943 0.39h-24c-0.354 0-0.693-0.14-0.943-0.39s-0.391-0.589-0.391-0.943zM4 22.752c-0.354 0-0.693 0.141-0.943 0.39s-0.391 0.589-0.391 0.943 0.14 0.693 0.391 0.943c0.25 0.25 0.589 0.39 0.943 0.39h24c0.354 0 0.693-0.14 0.943-0.39s0.39-0.589 0.39-0.943c0-0.354-0.14-0.693-0.39-0.943s-0.589-0.39-0.943-0.39h-24z">
            </path>
        </symbol>
        <symbol id="errorsvg" viewBox="0 0 32 32">
            <path fill="none" stroke="#ff705d" stroke-width="2.2857" stroke-miterlimit="4" stroke-linecap="round"
                stroke-linejoin="round" style="stroke: var(--color1, #ff705d)" d="M16 11.429v6.857"></path>
            <path fill="none" stroke="#ff705d" stroke-width="2.2857" stroke-miterlimit="4" stroke-linecap="round"
                stroke-linejoin="round" style="stroke: var(--color1, #ff705d)"
                d="M16.002 26.286c0.631 0 1.143-0.512 1.143-1.143s-0.512-1.143-1.143-1.143c-0.631 0-1.143 0.512-1.143 1.143s0.512 1.143 1.143 1.143z">
            </path>
            <path fill="none" stroke="#ff705d" stroke-width="2.2857" stroke-miterlimit="4" stroke-linecap="round"
                stroke-linejoin="round" style="stroke: var(--color1, #ff705d)"
                d="M18.036 2.4c-0.192-0.374-0.483-0.689-0.842-0.908s-0.771-0.336-1.192-0.336c-0.421 0-0.833 0.116-1.192 0.336s-0.65 0.534-0.842 0.908l-12.571 25.143c-0.175 0.348-0.259 0.735-0.242 1.124s0.132 0.768 0.336 1.1c0.204 0.332 0.489 0.606 0.829 0.797s0.723 0.291 1.112 0.293h25.143c0.39-0.001 0.772-0.102 1.112-0.293s0.625-0.465 0.829-0.797c0.204-0.332 0.319-0.711 0.336-1.1s-0.067-0.776-0.243-1.124l-12.571-25.143z">
            </path>
        </symbol>
        <symbol id="header_menu" viewBox="0 0 32 32">
            <path fill="#7eb101" style="fill: var(--color2, #7eb101)"
                d="M2.666 8c0-0.354 0.14-0.693 0.391-0.943s0.589-0.391 0.943-0.391h24c0.354 0 0.693 0.14 0.943 0.391s0.39 0.589 0.39 0.943c0 0.354-0.14 0.693-0.39 0.943s-0.589 0.391-0.943 0.391h-24c-0.354 0-0.693-0.14-0.943-0.391s-0.391-0.589-0.391-0.943zM2.666 16.043c0-0.354 0.14-0.693 0.391-0.943s0.589-0.39 0.943-0.39h24c0.354 0 0.693 0.14 0.943 0.39s0.39 0.589 0.39 0.943c0 0.354-0.14 0.693-0.39 0.943s-0.589 0.39-0.943 0.39h-24c-0.354 0-0.693-0.14-0.943-0.39s-0.391-0.589-0.391-0.943zM4 22.752c-0.354 0-0.693 0.141-0.943 0.39s-0.391 0.589-0.391 0.943 0.14 0.693 0.391 0.943c0.25 0.25 0.589 0.39 0.943 0.39h24c0.354 0 0.693-0.14 0.943-0.39s0.39-0.589 0.39-0.943c0-0.354-0.14-0.693-0.39-0.943s-0.589-0.39-0.943-0.39h-24z">
            </path>
        </symbol>

        <!-- Offerings -->

        <symbol id="hend" viewBox="0 0 32 32">
            <path fill="#fefefe" style="fill: var(--color1, #fefefe)"
                d="M32 16c0 8.837-7.163 16-16 16s-16-7.163-16-16c0-8.837 7.163-16 16-16s16 7.163 16 16z"></path>
            <path fill="#7eb101" style="fill: var(--color2, #7eb101)"
                d="M15.667 6.222c1.348 0 2.5 0.471 3.455 1.411s1.433 2.085 1.433 3.433c0 0.77-0.167 1.496-0.5 2.178-0.343 0.694-0.819 1.273-1.4 1.725l-0.011 0.008h-0.756v-1.111c0.418-0.33 0.753-0.747 0.98-1.224l0.009-0.021c0.217-0.451 0.344-0.98 0.344-1.539 0-0.006 0-0.011-0-0.017v0.001c0-0.978-0.348-1.807-1.044-2.489s-1.533-1.023-2.511-1.023-1.815 0.341-2.511 1.023c-0.696 0.681-1.044 1.511-1.044 2.489 0 0.548 0.115 1.067 0.344 1.555 0.237 0.498 0.571 0.915 0.982 1.239l0.007 0.005v1.6c-0.819-0.421-1.483-1.043-1.944-1.801l-0.012-0.021c-0.446-0.724-0.711-1.601-0.711-2.54 0-0.013 0-0.027 0-0.040v0.002c0-1.348 0.477-2.493 1.433-3.433s2.107-1.411 3.455-1.411zM14.822 24.889c-0.251 0-0.489-0.048-0.711-0.144-0.224-0.097-0.416-0.228-0.578-0.389l-4.578-4.577 1.245-1.289c0.207-0.207 0.441-0.367 0.7-0.477 0.143-0.064 0.309-0.101 0.485-0.101 0.116 0 0.229 0.016 0.335 0.047l-0.009-0.002 1.733 0.4v-7.244c0-0.623 0.215-1.149 0.644-1.578s0.956-0.645 1.578-0.645 1.148 0.215 1.578 0.645c0.429 0.429 0.644 0.955 0.644 1.578v3.822h0.578c0.074 0 0.141 0.015 0.2 0.045s0.126 0.059 0.2 0.089l3.289 1.6c0.356 0.163 0.619 0.426 0.789 0.789s0.219 0.737 0.144 1.123l-0.8 4.844c-0.071 0.431-0.297 0.8-0.618 1.053l-0.004 0.003c-0.308 0.256-0.707 0.411-1.143 0.411-0.004 0-0.009-0-0.013-0h-5.689zM14.645 23.555h6.244l0.956-5.533-4.067-2.022h-1.223v-4.889c0-0.267-0.081-0.482-0.244-0.645s-0.378-0.245-0.645-0.245-0.481 0.082-0.645 0.245c-0.163 0.163-0.244 0.378-0.244 0.645v8.867l-3.423-0.733-0.511 0.511 3.8 3.8zM20.889 23.555v0z">
            </path>
        </symbol>


        <symbol id="rocket" viewBox="0 0 32 32">
            <path fill="#fefefe" style="fill: var(--color1, #fefefe)"
                d="M32 16c0 8.837-7.163 16-16 16s-16-7.163-16-16c0-8.837 7.163-16 16-16s16 7.163 16 16z"></path>
            <path fill="#7eb101" style="fill: var(--color2, #7eb101)"
                d="M9.489 14.422l2.356 1c0.267-0.533 0.551-1.059 0.855-1.577s0.626-1.015 0.967-1.489l-1.755-0.355-2.423 2.422zM12.911 16.222l2.955 2.956c0.922-0.422 1.702-0.859 2.442-1.351l-0.064 0.040c0.74-0.489 1.34-0.963 1.8-1.422 1.2-1.2 2.081-2.43 2.644-3.689s0.867-2.681 0.911-4.267c-1.585 0.045-3.007 0.349-4.267 0.911s-2.489 1.445-3.689 2.645c-0.46 0.459-0.933 1.059-1.423 1.8-0.452 0.676-0.889 1.456-1.266 2.269l-0.045 0.108zM18 14.089c-0.296-0.296-0.445-0.663-0.445-1.1s0.149-0.803 0.445-1.1c0.296-0.296 0.663-0.444 1.1-0.444s0.804 0.148 1.1 0.444c0.296 0.297 0.445 0.663 0.445 1.1s-0.149 0.804-0.445 1.1c-0.296 0.297-0.663 0.445-1.1 0.445s-0.804-0.148-1.1-0.445zM17.667 22.6l2.422-2.422-0.355-1.756c-0.474 0.341-0.971 0.663-1.489 0.967s-1.045 0.589-1.578 0.856l1 2.355zM24.911 7.178c0.133 2.015-0.119 3.851-0.756 5.511s-1.689 3.223-3.155 4.689l-0.045 0.044-0.044 0.045 0.489 2.445c0.045 0.222 0.033 0.437-0.033 0.644s-0.181 0.393-0.345 0.556l-3.8 3.822-1.889-4.4-3.778-3.778-4.4-1.889 3.823-3.8c0.163-0.163 0.348-0.278 0.555-0.345s0.422-0.077 0.645-0.033l2.444 0.489c0.013-0.013 0.027-0.024 0.044-0.033l0.001-0c0.017-0.009 0.032-0.020 0.045-0.033l0-0c1.467-1.467 3.029-2.523 4.689-3.167s3.496-0.9 5.511-0.767zM8.645 19.445c0.518-0.519 1.151-0.782 1.9-0.789s1.381 0.249 1.9 0.767c0.518 0.519 0.773 1.152 0.767 1.9s-0.271 1.382-0.789 1.9c-0.385 0.385-0.981 0.704-1.789 0.956s-2.019 0.489-3.633 0.711c0.222-1.615 0.455-2.829 0.7-3.644s0.559-1.415 0.945-1.8zM9.578 20.4c-0.207 0.222-0.393 0.571-0.556 1.045s-0.303 1.081-0.422 1.822c0.741-0.119 1.348-0.259 1.822-0.422s0.823-0.349 1.045-0.556c0.281-0.251 0.426-0.567 0.433-0.944 0-0.012 0.001-0.026 0.001-0.041 0-0.37-0.149-0.705-0.389-0.949l0 0c-0.244-0.241-0.579-0.389-0.949-0.389-0.014 0-0.028 0-0.042 0.001l0.002-0c-0.377 0.001-0.714 0.168-0.943 0.432l-0.001 0.002z">
            </path>
        </symbol>

        <!-- finished offerings-->
        <symbol id="next" viewBox="0 0 17 32">
            <path stroke-width="1.4545" stroke-miterlimit="4" stroke-linecap="butt" stroke-linejoin="miter"
                d="M16.349 15.605v0c0.054 0.051 0.096 0.112 0.125 0.18v0c0.029 0.068 0.044 0.141 0.044 0.215s-0.015 0.147-0.044 0.215v0c-0.029 0.068-0.072 0.129-0.125 0.18v0l-14.186 13.516c-0.101 0.097-0.236 0.151-0.376 0.151-0.138 0-0.271-0.052-0.371-0.146l-0.008-0.008 0-0-0.014-0.013c-0.044-0.041-0.078-0.091-0.102-0.147s-0.036-0.115-0.036-0.175 0.012-0.12 0.036-0.175c0.024-0.055 0.058-0.105 0.102-0.147l0.001-0.001 13.911-13.249-13.912-13.255c-0.044-0.041-0.078-0.091-0.102-0.147s-0.036-0.115-0.036-0.175c0-0.060 0.012-0.12 0.036-0.175s0.058-0.105 0.102-0.147l0 0 0.021-0.021c0.101-0.094 0.234-0.146 0.371-0.146 0.14 0 0.275 0.054 0.376 0.151l0 0 14.186 13.516z">
            </path>
        </symbol>
        <symbol id="prev" viewBox="0 0 17 32">
            <path stroke-width="1.4545" stroke-miterlimit="4" stroke-linecap="butt" stroke-linejoin="miter"
                d="M1.105 16.395v0c-0.053-0.051-0.096-0.112-0.125-0.18v0c-0.029-0.068-0.044-0.141-0.044-0.215s0.015-0.147 0.044-0.215v0c0.029-0.068 0.072-0.129 0.125-0.18v-0l14.186-13.516c0.102-0.097 0.236-0.151 0.376-0.151 0.138 0 0.271 0.052 0.371 0.146l0.008 0.008-0 0 0.014 0.013c0.044 0.041 0.078 0.091 0.102 0.147s0.036 0.115 0.036 0.175-0.012 0.12-0.036 0.175c-0.024 0.055-0.059 0.105-0.102 0.147l-0.001 0.001-13.911 13.249 13.912 13.255c0.044 0.041 0.078 0.091 0.102 0.147s0.036 0.115 0.036 0.175c0 0.060-0.012 0.12-0.036 0.175s-0.059 0.105-0.102 0.147l-0-0-0.013 0.013-0.008 0.008c-0.101 0.094-0.233 0.146-0.371 0.146-0.14 0-0.275-0.054-0.376-0.151l-0-0-14.186-13.516z">
            </path>
        </symbol>

        <symbol id="star" viewBox="0 0 36 32">
            <path fill="#ffe550" style="fill: var(--color3, #ffe550)"
                d="M15.639 1.037c0.593-1.383 2.611-1.383 3.204 0l3.498 8.164c0.25 0.583 0.815 0.982 1.463 1.032l9.079 0.707c1.538 0.12 2.162 1.983 0.99 2.958l-6.917 5.752c-0.494 0.411-0.71 1.056-0.559 1.67l2.113 8.6c0.358 1.457-1.275 2.609-2.592 1.828l-7.773-4.609c-0.555-0.329-1.253-0.329-1.809 0l-7.773 4.609c-1.317 0.781-2.95-0.371-2.592-1.828l2.113-8.6c0.151-0.614-0.065-1.259-0.559-1.67l-6.918-5.752c-1.172-0.975-0.548-2.838 0.99-2.958l9.079-0.707c0.649-0.050 1.213-0.449 1.463-1.032l3.498-8.164z">
            </path>
        </symbol>
    </defs>
</svg>